<svg xmlns="http://www.w3.org/2000/svg" width="300" height="450" viewBox="0 0 300 450">
  <defs>
    <linearGradient id="bg" x1="0%" y1="0%" x2="100%" y2="100%">
      <stop offset="0%" stop-color="#1e1b4b"/>
      <stop offset="50%" stop-color="#0f172a"/>
      <stop offset="100%" stop-color="#020617"/>
    </linearGradient>
    <linearGradient id="accent" x1="0%" y1="0%" x2="100%" y2="0%">
      <stop offset="0%" stop-color="#818cf8"/>
      <stop offset="100%" stop-color="#c084fc"/>
    </linearGradient>
  </defs>
  <rect width="300" height="450" fill="url(#bg)"/>
  <rect x="20" y="20" width="260" height="410" rx="8" fill="none" stroke="rgba(255,255,255,0.1)" stroke-width="2"/>
  <path d="M150 140c-25 0-45-20-45-45 0-2.5.2-5 .7-7.5C118 97 133 107 150 107s32-10 44.3-19.5c.5 2.5.7 5 .7 7.5 0 25-20 45-45 45z" fill="url(#accent)"/>
  <text x="150" y="240" font-family="-apple-system, BlinkMacSystemFont, 'Segoe UI', Roboto, sans-serif" font-size="22" font-weight="700" fill="#f8fafc" text-anchor="middle">Midnight Stories</text>
  <text x="150" y="270" font-family="-apple-system, BlinkMacSystemFont, 'Segoe UI', Roboto, sans-serif" font-size="13" fill="#94a3b8" text-anchor="middle">Book Collection</text>
  <rect x="100" y="320" width="100" height="2" fill="url(#accent)"/>
</svg>
